<?xml version="1.0" encoding="utf-8"?>
<svg viewBox="520.923 1117.1689 425.131 629.6851" xmlns="http://www.w3.org/2000/svg">
  <path d="M 735.156 1117.169 L 738.49 1118.813 L 760.164 1138.542 L 771.834 1150.873 L 779.336 1159.916 L 789.339 1172.246 L 801.009 1190.331 L 811.013 1209.238 L 817.681 1226.501 L 821.849 1239.654 L 824.35 1251.162 L 826.017 1266.781 L 826.017 1289.798 L 822.683 1311.993 L 816.848 1336.655 L 809.345 1358.028 L 799.342 1380.223 L 790.173 1398.308 L 779.336 1417.215 L 769.333 1433.656 L 767.666 1433.656 L 766.832 1436.944 L 765.165 1440.232 L 763.498 1440.232 L 763.498 1442.698 L 761.831 1442.698 L 760.997 1445.986 L 757.663 1451.741 L 755.996 1451.741 L 755.996 1454.207 L 754.328 1454.207 L 754.328 1456.673 L 752.661 1456.673 L 751.828 1459.961 L 750.994 1461.605 L 749.327 1461.605 L 748.493 1464.893 L 735.156 1484.622 L 733.489 1484.622 L 731.821 1488.733 L 720.985 1503.529 L 717.65 1509.284 L 715.983 1509.284 L 714.316 1513.394 L 701.812 1531.479 L 700.145 1531.479 L 699.311 1534.767 L 695.977 1539.699 L 694.31 1539.699 L 693.476 1542.987 L 690.142 1547.92 L 688.475 1547.92 L 687.641 1551.208 L 686.808 1552.852 L 685.14 1552.852 L 684.307 1556.14 L 675.971 1568.471 L 673.47 1572.581 L 671.803 1572.581 L 671.803 1575.047 L 670.136 1575.047 L 670.136 1577.513 L 668.469 1577.513 L 668.469 1579.979 L 666.802 1579.979 L 665.968 1583.267 L 648.463 1612.039 L 640.96 1625.192 L 630.957 1644.099 L 620.954 1665.472 L 612.618 1687.667 L 605.949 1709.862 L 605.116 1713.15 L 601.782 1711.506 L 592.612 1702.464 L 586.777 1695.887 L 576.774 1684.379 L 565.937 1670.404 L 555.934 1656.429 L 545.931 1639.166 L 539.262 1626.014 L 533.427 1612.861 L 525.925 1590.666 L 522.59 1573.403 L 520.923 1563.538 L 520.923 1525.724 L 522.59 1512.572 L 527.592 1489.555 L 534.261 1468.181 L 543.43 1445.986 L 553.433 1425.435 L 564.27 1405.706 L 575.94 1386.799 L 597.614 1354.74 L 619.287 1325.146 L 630.957 1309.527 L 636.792 1301.307 L 638.459 1301.307 L 640.127 1297.197 L 643.461 1292.264 L 645.128 1292.264 L 645.962 1288.976 L 647.629 1288.976 L 648.463 1285.688 L 650.13 1285.688 L 651.797 1281.578 L 652.63 1279.934 L 654.298 1279.934 L 655.965 1276.646 L 666.802 1261.027 L 671.803 1253.628 L 673.47 1253.628 L 673.47 1251.162 L 675.137 1251.162 L 676.805 1247.052 L 679.305 1242.942 L 680.973 1242.942 L 681.806 1239.654 L 682.64 1238.01 L 684.307 1238.01 L 685.14 1234.721 L 695.144 1219.103 L 702.646 1206.772 L 713.483 1187.043 L 721.818 1168.958 L 730.154 1144.297 L 734.322 1123.746 L 735.156 1117.169 Z" fill="#E1CF86" style="" transform="matrix(1, 0, 0, 1, 0, -5.684341886080802e-14)"/>
  <path d="M 870.197 1413.927 L 871.031 1415.571 L 870.197 1420.503 L 871.031 1421.325 L 875.199 1448.452 L 880.2 1463.249 L 883.535 1482.156 L 885.202 1487.088 L 888.536 1505.173 L 891.871 1521.614 L 896.872 1544.631 L 901.04 1563.538 L 905.208 1580.801 L 906.875 1587.378 L 910.21 1596.42 L 915.211 1615.327 L 918.546 1626.836 L 918.546 1630.124 L 921.88 1630.946 L 925.214 1626.014 L 926.048 1628.48 L 917.712 1644.921 L 907.709 1660.539 L 896.872 1673.692 L 889.37 1681.913 L 875.199 1695.887 L 863.529 1704.93 L 851.858 1713.15 L 841.855 1718.904 L 839.355 1718.904 L 839.355 1720.549 L 826.017 1727.125 L 815.18 1731.235 L 808.512 1733.701 L 800.176 1736.989 L 776.835 1742.744 L 750.994 1746.032 L 741.825 1746.854 L 731.821 1746.854 L 704.313 1744.388 L 692.643 1741.922 L 689.308 1737.811 L 687.641 1730.413 L 688.475 1718.082 L 692.643 1703.286 L 700.979 1683.557 L 712.649 1661.361 L 725.986 1639.166 L 731.821 1630.124 L 738.49 1619.437 L 744.325 1610.395 L 745.993 1607.107 L 747.66 1607.107 L 748.493 1603.818 L 752.661 1598.064 L 753.495 1595.598 L 755.162 1595.598 L 755.162 1593.132 L 756.829 1593.132 L 757.663 1589.844 L 771.834 1568.471 L 794.341 1534.767 L 808.512 1513.394 L 831.852 1477.224 L 843.523 1458.317 L 854.359 1441.054 L 861.861 1427.901 L 870.197 1413.927 Z" fill="#BB9959" style="" transform="matrix(1, 0, 0, 1, 0, -5.684341886080802e-14)"/>
  <path d="M 896.039 1362.96 L 897.706 1362.96 L 910.21 1387.621 L 920.213 1410.639 L 931.883 1443.52 L 939.385 1473.114 L 943.553 1496.131 L 946.054 1522.436 L 946.054 1545.453 L 943.553 1570.937 L 938.552 1594.776 L 931.883 1615.327 L 927.715 1624.37 L 924.381 1628.48 L 921.046 1631.768 L 918.546 1630.124 L 912.71 1609.573 L 907.709 1591.488 L 905.208 1585.734 L 902.707 1573.403 L 898.539 1556.14 L 894.371 1538.055 L 880.2 1468.181 L 878.533 1461.605 L 874.365 1448.452 L 870.197 1421.325 L 869.364 1418.037 L 870.197 1412.283 L 871.865 1412.283 L 872.698 1408.172 L 887.703 1379.401 L 896.039 1362.96 Z" fill="#97642D" style="" transform="matrix(1, 0, 0, 1, 0, -5.684341886080802e-14)"/>
  <path d="M 876.866 1399.952 L 878.533 1400.774 L 878.533 1407.35 L 881.034 1413.105 L 883.535 1428.723 L 884.368 1436.122 L 887.703 1449.275 L 889.37 1453.385 L 891.037 1462.427 L 894.371 1477.224 L 896.872 1492.021 L 905.208 1528.191 L 908.542 1544.631 L 913.544 1564.36 L 918.546 1582.445 L 921.046 1592.31 L 924.381 1602.996 L 924.381 1607.929 L 926.048 1608.751 L 928.549 1615.327 L 930.216 1616.149 L 928.549 1623.548 L 924.381 1628.48 L 921.046 1631.768 L 918.546 1630.124 L 912.71 1609.573 L 907.709 1591.488 L 905.208 1585.734 L 902.707 1573.403 L 898.539 1556.14 L 894.371 1538.055 L 880.2 1468.181 L 878.533 1461.605 L 874.365 1448.452 L 870.197 1421.325 L 869.364 1418.037 L 870.197 1412.283 L 871.865 1412.283 L 872.698 1408.172 L 876.866 1399.952 Z" fill="#9E6E36" style="" transform="matrix(1, 0, 0, 1, 0, -5.684341886080802e-14)"/>
</svg>